<svg fill="#000000" height="24px" width="24px" version="1.1" id="Capa_1" xmlns="http://www.w3.org/2000/svg" xmlns:xlink="http://www.w3.org/1999/xlink" 
	 viewBox="0 0 611.998 611.998" xml:space="preserve">
<g>
	<g>
		<g>
			<path d="M150.605,386.078c-41.48,0-75.23,33.817-75.23,75.385c0,41.466,33.748,75.199,75.23,75.199
				c41.552,0,75.359-33.734,75.359-75.199C225.964,419.895,192.159,386.078,150.605,386.078z M150.605,499.82
				c-21.168,0-38.387-17.207-38.387-38.356c0-21.252,17.219-38.542,38.387-38.542c21.237,0,38.516,17.292,38.516,38.542
				C189.121,482.613,171.842,499.82,150.605,499.82z"/>
			<path d="M303.848,308.404c-55.163-55.249-128.361-86.255-206.121-87.306c-0.084,0-0.164,0-0.249,0
				c-4.839,0-9.487,1.904-12.938,5.307c-3.508,3.463-5.483,8.185-5.483,13.114v74.579c0,10.041,8.044,18.236,18.085,18.418
				c48.239,0.881,93.633,20.247,127.829,54.538c34.172,34.213,53.483,79.794,54.38,128.341c0.186,10.038,8.377,18.079,18.418,18.079
				h74.804c0.012,0.003,0.025,0,0.025,0c10.182,0,18.427-8.248,18.427-18.421c0-0.456-0.015-0.909-0.048-1.356
				C389.654,436.251,358.739,363.384,303.848,308.404z M315.129,496.633c-5.046-51.291-27.428-98.904-64.085-135.603
				c-36.669-36.774-84.113-59.225-135.147-64.292v-37.868c125.093,10.833,226.533,112.462,237.328,237.763H315.129z"/>
			<path d="M406.814,205.403C324.131,122.576,214.385,76.387,97.791,75.343c-4.894-0.054-9.642,1.877-13.133,5.338
				c-3.489,3.457-5.454,8.167-5.454,13.081v74.553c0,10.095,8.128,18.311,18.223,18.421
				c178.753,1.937,325.746,149.311,327.671,328.517c0.107,10.095,8.323,18.223,18.421,18.223h74.68c0.012,0.003,0.025,0,0.025,0
				c10.182,0,18.431-8.248,18.431-18.421c0-0.422-0.015-0.846-0.044-1.262C535.301,397.437,489.233,287.959,406.814,205.403z
				 M461.304,496.633c-5.351-90.028-43.043-174.151-107.269-238.54c-64.232-64.387-148.16-102.182-237.987-107.556v-37.761
				c205.24,11.312,371.89,178.265,383.146,383.856H461.304z"/>
			<path d="M552.728,0H59.275C26.591,0,0,26.591,0,59.275v493.451c0,32.684,26.591,59.272,59.275,59.272h493.451
				c32.684,0,59.272-26.588,59.272-59.272V59.275C612,26.591,585.412,0,552.728,0z M575.157,552.728
				c0,12.368-10.063,22.43-22.43,22.43H59.275c-12.371,0-22.433-10.063-22.433-22.43V59.275c0-12.367,10.063-22.433,22.433-22.433
				h493.451c12.368,0,22.43,10.066,22.43,22.433v493.453H575.157z"/>
		</g>
	</g>
</g>
</svg>